<?xml version="1.0" encoding="UTF-8" standalone="no"?>
<!-- Created with Inkscape (http://www.inkscape.org/) -->

<svg
   width="508mm"
   height="285.75mm"
   viewBox="0 0 508 285.75"
   version="1.1"
   id="svg1"
   xml:space="preserve"
   inkscape:export-filename="hero.png"
   inkscape:export-xdpi="96"
   inkscape:export-ydpi="96"
   inkscape:version="1.3-dev (1cb45e87f, 2022-09-23)"
   sodipodi:docname="logo.svg"
   xmlns:inkscape="http://www.inkscape.org/namespaces/inkscape"
   xmlns:sodipodi="http://sodipodi.sourceforge.net/DTD/sodipodi-0.dtd"
   xmlns:xlink="http://www.w3.org/1999/xlink"
   xmlns="http://www.w3.org/2000/svg"
   xmlns:svg="http://www.w3.org/2000/svg"><sodipodi:namedview
     id="namedview1"
     pagecolor="#505050"
     bordercolor="#eeeeee"
     borderopacity="1"
     inkscape:showpageshadow="0"
     inkscape:pageopacity="0"
     inkscape:pagecheckerboard="0"
     inkscape:deskcolor="#505050"
     inkscape:document-units="mm"
     showgrid="false"
     inkscape:zoom="0.26645962"
     inkscape:cx="1486.1539"
     inkscape:cy="287.09791"
     inkscape:window-width="1920"
     inkscape:window-height="1017"
     inkscape:window-x="-8"
     inkscape:window-y="-8"
     inkscape:window-maximized="1"
     inkscape:current-layer="layer1" /><defs
     id="defs1"><linearGradient
       inkscape:collect="always"
       id="linearGradient673"><stop
         style="stop-color:#c13764;stop-opacity:1"
         offset="0"
         id="stop669" /><stop
         style="stop-color:#1f2671;stop-opacity:1"
         offset="1"
         id="stop671" /></linearGradient><linearGradient
       inkscape:collect="always"
       xlink:href="#linearGradient673"
       id="linearGradient675"
       x1="597.41602"
       y1="606.94531"
       x2="1169.8516"
       y2="606.94531"
       gradientUnits="userSpaceOnUse"
       gradientTransform="matrix(1.051015,0.78316595,-0.78316595,1.051015,-347.63558,-325.56765)" /><linearGradient
       inkscape:collect="always"
       xlink:href="#linearGradient673"
       id="linearGradient2752"
       gradientUnits="userSpaceOnUse"
       gradientTransform="matrix(-0.77311602,-1.0584296,1.0584296,-0.77311602,1649.9492,1408.2201)"
       x1="597.41602"
       y1="606.94531"
       x2="1169.8516"
       y2="606.94531" /><linearGradient
       inkscape:collect="always"
       xlink:href="#linearGradient673"
       id="linearGradient2756"
       gradientUnits="userSpaceOnUse"
       gradientTransform="matrix(0.1107389,-0.06363133,0.06363133,0.1107389,300.08645,221.16841)"
       x1="597.41602"
       y1="606.94531"
       x2="1169.8516"
       y2="606.94531" /><linearGradient
       inkscape:collect="always"
       xlink:href="#linearGradient673"
       id="linearGradient3314"
       gradientUnits="userSpaceOnUse"
       gradientTransform="matrix(0.10657478,0.0703837,-0.0703837,0.10657478,55.031034,-75.077227)"
       x1="597.41602"
       y1="606.94531"
       x2="1169.8516"
       y2="606.94531" /><linearGradient
       inkscape:collect="always"
       xlink:href="#linearGradient673"
       id="linearGradient3318"
       gradientUnits="userSpaceOnUse"
       gradientTransform="matrix(-0.12657081,0.01708446,-0.01708446,-0.12657081,291.18113,288.16842)"
       x1="597.41602"
       y1="606.94531"
       x2="1169.8516"
       y2="606.94531" /><clipPath
       clipPathUnits="userSpaceOnUse"
       id="clipPath3322"><rect
         style="fill:#1f2671;fill-opacity:1;stroke-linecap:round"
         id="rect3324"
         width="1920"
         height="1080"
         x="0"
         y="0" /></clipPath><clipPath
       clipPathUnits="userSpaceOnUse"
       id="clipPath3326"><rect
         style="fill:#1f2671;fill-opacity:1;stroke-linecap:round"
         id="rect3328"
         width="1920"
         height="1080"
         x="0"
         y="0" /></clipPath><linearGradient
       inkscape:collect="always"
       xlink:href="#linearGradient673"
       id="linearGradient4140"
       x1="2433.6301"
       y1="876.36987"
       x2="3261.9353"
       y2="860.91455"
       gradientUnits="userSpaceOnUse"
       gradientTransform="rotate(-121.16193,1386.8261,1336.0685)" /><linearGradient
       inkscape:collect="always"
       xlink:href="#linearGradient673"
       id="linearGradient4144"
       gradientUnits="userSpaceOnUse"
       gradientTransform="rotate(48.998219,2416.7516,-283.2948)"
       x1="2414.21"
       y1="860.91455"
       x2="3261.9353"
       y2="860.91455" /><clipPath
       clipPathUnits="userSpaceOnUse"
       id="clipPath4148"><rect
         style="fill:#1f2671;fill-opacity:1;stroke-linecap:round"
         id="rect4150"
         width="1920"
         height="1080"
         x="0"
         y="0" /></clipPath><clipPath
       clipPathUnits="userSpaceOnUse"
       id="clipPath4152"><rect
         style="fill:#1f2671;fill-opacity:1;stroke-linecap:round"
         id="rect4154"
         width="1920"
         height="1080"
         x="0"
         y="0" /></clipPath><linearGradient
       inkscape:collect="always"
       id="linearGradient34245"><stop
         style="stop-color:#ec0e6e;stop-opacity:1"
         offset="0"
         id="stop34241" /><stop
         style="stop-color:#31bff2;stop-opacity:1"
         offset="1"
         id="stop34243" /></linearGradient><linearGradient
       inkscape:collect="always"
       id="linearGradient6220"><stop
         style="stop-color:#ff7b00;stop-opacity:1"
         offset="0"
         id="stop6216" /><stop
         style="stop-color:#ffea00;stop-opacity:1"
         offset="1"
         id="stop6218" /></linearGradient><inkscape:path-effect
       effect="fillet_chamfer"
       id="path-effect376"
       is_visible="true"
       lpeversion="1"
       nodesatellites_param="F,0,1,1,0,91.9102,0,1 @ F,0,0,1,0,0,0,1 @ F,0,0,1,0,0,0,1 @ F,0,0,1,0,0,0,1 @ F,0,0,1,0,0,0,1 @ F,0,0,1,0,91.9102,0,1 @ F,0,0,1,0,0,0,1 @ F,0,0,1,0,0,0,1 @ F,0,0,1,0,0,0,1 @ F,0,0,1,0,0,0,1 @ F,0,0,1,0,0,0,1 @ F,0,0,1,0,0,0,1"
       unit="px"
       method="auto"
       mode="F"
       radius="0"
       chamfer_steps="1"
       flexible="false"
       use_knot_distance="true"
       apply_no_radius="true"
       apply_with_radius="true"
       only_selected="false"
       hide_knots="false" /><inkscape:path-effect
       effect="fillet_chamfer"
       id="path-effect2276"
       is_visible="true"
       lpeversion="1"
       nodesatellites_param="F,0,1,1,0,91.9102,0,1 @ F,0,0,1,0,0,0,1 @ F,0,0,1,0,0,0,1 @ F,0,0,1,0,0,0,1 @ F,0,0,1,0,0,0,1 @ F,0,0,1,0,91.9102,0,1 @ F,0,0,1,0,0,0,1 @ F,0,0,1,0,0,0,1 @ F,0,0,1,0,0,0,1 @ F,0,0,1,0,0,0,1 @ F,0,0,1,0,0,0,1 @ F,0,0,1,0,0,0,1"
       unit="px"
       method="auto"
       mode="F"
       radius="0"
       chamfer_steps="1"
       flexible="false"
       use_knot_distance="true"
       apply_no_radius="true"
       apply_with_radius="true"
       only_selected="false"
       hide_knots="false" /><inkscape:path-effect
       effect="fillet_chamfer"
       id="path-effect2270"
       is_visible="true"
       lpeversion="1"
       nodesatellites_param="F,0,1,1,0,91.9102,0,1 @ F,0,0,1,0,0,0,1 @ F,0,0,1,0,0,0,1 @ F,0,0,1,0,0,0,1 @ F,0,0,1,0,0,0,1 @ F,0,0,1,0,91.9102,0,1 @ F,0,0,1,0,0,0,1 @ F,0,0,1,0,0,0,1 @ F,0,0,1,0,0,0,1 @ F,0,0,1,0,0,0,1 @ F,0,0,1,0,0,0,1 @ F,0,0,1,0,0,0,1"
       unit="px"
       method="auto"
       mode="F"
       radius="0"
       chamfer_steps="1"
       flexible="false"
       use_knot_distance="true"
       apply_no_radius="true"
       apply_with_radius="true"
       only_selected="false"
       hide_knots="false" /><linearGradient
       inkscape:collect="always"
       id="linearGradient7263"><stop
         style="stop-color:#ffffff;stop-opacity:1"
         offset="0"
         id="stop7259" /><stop
         style="stop-color:#b3b3b3;stop-opacity:1"
         offset="1"
         id="stop7261" /></linearGradient><linearGradient
       inkscape:collect="always"
       xlink:href="#linearGradient7263"
       id="linearGradient8492"
       x1="1241.7952"
       y1="535.61591"
       x2="1572.8182"
       y2="535.61591"
       gradientUnits="userSpaceOnUse" /><linearGradient
       inkscape:collect="always"
       xlink:href="#linearGradient34245"
       id="linearGradient34247"
       x1="-381.44202"
       y1="459.72598"
       x2="-432.95032"
       y2="459.81155"
       gradientUnits="userSpaceOnUse"
       gradientTransform="matrix(2.8493738,0,0,2.8493738,1303.81,-730.75648)" /><linearGradient
       inkscape:collect="always"
       xlink:href="#linearGradient34245"
       id="linearGradient42469"
       gradientUnits="userSpaceOnUse"
       gradientTransform="matrix(2.8493738,0,0,2.8493738,1451.044,-593.2302)"
       x1="-348.50797"
       y1="457.45468"
       x2="-441.46774"
       y2="457.54025" /><clipPath
       clipPathUnits="userSpaceOnUse"
       id="clipPath42681"><rect
         style="fill:#ffffff"
         id="rect42683"
         width="793.70081"
         height="1122.5197"
         x="0"
         y="0" /></clipPath><clipPath
       clipPathUnits="userSpaceOnUse"
       id="clipPath42685"><rect
         style="fill:#ffffff"
         id="rect42687"
         width="793.70081"
         height="1122.5197"
         x="0"
         y="0" /></clipPath><clipPath
       clipPathUnits="userSpaceOnUse"
       id="clipPath42689"><rect
         style="fill:#ffffff"
         id="rect42691"
         width="793.70081"
         height="1122.5197"
         x="0"
         y="0"
         transform="scale(-1,1)" /></clipPath><clipPath
       clipPathUnits="userSpaceOnUse"
       id="clipPath42693"><rect
         style="fill:#ffffff"
         id="rect42695"
         width="793.70081"
         height="1122.5197"
         x="0"
         y="0" /></clipPath><clipPath
       clipPathUnits="userSpaceOnUse"
       id="clipPath42697"><rect
         style="fill:#ffffff"
         id="rect42699"
         width="793.70081"
         height="1122.5197"
         x="0"
         y="0" /></clipPath><inkscape:path-effect
       effect="fillet_chamfer"
       id="path-effect1289"
       is_visible="true"
       lpeversion="1"
       nodesatellites_param="F,0,1,1,0,141.64353,0,1 @ F,0,0,1,0,141.64353,0,1 @ F,0,0,1,0,0,0,1 @ F,0,0,1,0,0,0,1 @ F,0,0,1,0,0,0,1 @ F,0,0,1,0,0,0,1 @ F,0,0,1,0,0,0,1 @ F,0,0,1,0,0,0,1 @ F,0,0,1,0,0,0,1 @ F,0,0,1,0,0,0,1 @ F,0,0,1,0,0,0,1 @ F,0,0,1,0,0,0,1 @ F,0,0,1,0,0,0,1"
       unit="px"
       method="auto"
       mode="F"
       radius="0"
       chamfer_steps="1"
       flexible="false"
       use_knot_distance="true"
       apply_no_radius="true"
       apply_with_radius="true"
       only_selected="false"
       hide_knots="false" /><inkscape:path-effect
       effect="fillet_chamfer"
       id="path-effect1274"
       is_visible="true"
       lpeversion="1"
       nodesatellites_param="F,0,1,1,0,141.64353,0,1 @ F,0,0,1,0,141.64353,0,1 @ F,0,0,1,0,0,0,1 @ F,0,0,1,0,0,0,1 @ F,0,0,1,0,0,0,1 @ F,0,0,1,0,0,0,1 @ F,0,0,1,0,0,0,1 @ F,0,0,1,0,0,0,1 @ F,0,0,1,0,0,0,1 @ F,0,0,1,0,0,0,1 @ F,0,0,1,0,0,0,1 @ F,0,0,1,0,0,0,1 @ F,0,0,1,0,0,0,1"
       unit="px"
       method="auto"
       mode="F"
       radius="0"
       chamfer_steps="1"
       flexible="false"
       use_knot_distance="true"
       apply_no_radius="true"
       apply_with_radius="true"
       only_selected="false"
       hide_knots="false" /><linearGradient
       inkscape:collect="always"
       xlink:href="#linearGradient6220"
       id="linearGradient2083"
       gradientUnits="userSpaceOnUse"
       gradientTransform="matrix(0.80502722,0,0,0.80502722,1169.9774,30.80218)"
       x1="1053.146"
       y1="659.38763"
       x2="1539.0439"
       y2="655.88147" /><clipPath
       clipPathUnits="userSpaceOnUse"
       id="clipPath8697"><rect
         style="fill:#1f2671;fill-opacity:1;stroke-linecap:round"
         id="rect8699"
         width="1920"
         height="1080"
         x="0"
         y="9.5285358" /></clipPath></defs><g
     inkscape:label="Layer 1"
     inkscape:groupmode="layer"
     id="layer1"><text
       xml:space="preserve"
       style="font-style:normal;font-variant:normal;font-weight:bold;font-stretch:normal;font-size:13.8057px;line-height:1.25;font-family:'Basement Grotesque';-inkscape-font-specification:'Basement Grotesque Bold';font-variant-ligatures:normal;font-variant-caps:normal;font-variant-numeric:normal;font-variant-east-asian:normal;fill:#4d4d4d;stroke-width:0.345141"
       x="-170.6416"
       y="70.984161"
       id="text10642"><tspan
         sodipodi:role="line"
         id="tspan10640"
         x="-170.6416"
         y="70.984161"
         style="font-style:normal;font-variant:normal;font-weight:bold;font-stretch:normal;font-size:13.8057px;font-family:'Basement Grotesque';-inkscape-font-specification:'Basement Grotesque Bold';font-variant-ligatures:normal;font-variant-caps:normal;font-variant-numeric:normal;font-variant-east-asian:normal;fill:#4d4d4d;stroke-width:0.345141" /></text><text
       xml:space="preserve"
       style="font-style:normal;font-variant:normal;font-weight:bold;font-stretch:normal;font-size:10.5833px;line-height:1.25;font-family:'Basement Grotesque';-inkscape-font-specification:'Basement Grotesque Bold';stroke-width:0.264583"
       x="-149.0287"
       y="61.320206"
       id="text10758"><tspan
         sodipodi:role="line"
         id="tspan10756"
         x="-149.0287"
         y="61.320206"
         style="stroke-width:0.264583" /></text><g
       aria-label="aa"
       id="text236"
       style="font-size:429.926px;font-family:'Agrozza Demo';-inkscape-font-specification:'Agrozza Demo, Normal';fill:#3b85ba;stroke-width:41.7939;stroke-linecap:round"
       transform="matrix(0.03676326,0,0,0.03676326,10.198798,8.1840402)" /><g
       id="g1004"
       transform="matrix(0.37371701,0,0,0.37371701,561.46263,-118.86547)"
       inkscape:export-filename="logo.png"
       inkscape:export-xdpi="100"
       inkscape:export-ydpi="100"><g
         id="g998"><path
           id="rect662"
           style="fill:#ffffff;fill-opacity:1;stroke-width:2.03121;stroke-linecap:round"
           d="m 469.75016,658.28188 v 36.56431 h 86.57698 l -14.55743,-36.56431 z"
           sodipodi:nodetypes="ccccc" /><path
           id="rect446"
           style="fill:#ffffff;stroke-width:2.03121;stroke-linecap:round"
           d="M 532.89133,436.06641 360.30484,807.04867 h 63.01141 l 27.39377,-58.89893 27.39377,-58.89891 27.39377,-58.89892 27.39377,-58.89893 109.57267,235.59569 h 63.01154 z"
           sodipodi:nodetypes="cccccccccc" /></g><path
         id="path656"
         style="fill:#ffffff;stroke-width:2.03121;stroke-linecap:round"
         d="m 754.31573,436.06641 -94.77039,203.83917 31.25268,68.19832 63.51771,-136.65092 109.57267,235.59569 h 63.01153 z" /></g><g
       id="g1"><rect
         style="fill:#1f2671;fill-opacity:1;stroke-width:0.264583;stroke-linecap:round"
         id="rect2748"
         width="508"
         height="285.75"
         x="3.2e-06"
         y="1.8207836e-06" /><path
         id="path3382"
         style="fill:url(#linearGradient4140);fill-opacity:1;stroke-linecap:round"
         d="m -37.766947,6.244152 c 47.93501,-28.98695 150.935407,47.80238 183.312087,130.244848 42.02294,107.00524 72.06846,137.08313 146.74263,197.23553 87.24943,70.28218 342.36882,93.9988 349.46735,182.28602 7.09858,88.28727 -194.40527,184.20337 -242.34029,213.19037 -47.93501,28.9869 -116.93679,18.7024 -191.8257,-28.5911 C 132.70022,653.31642 58.058643,572.88802 0.08472347,477.01792 -57.889197,381.14787 -94.446497,277.68947 -101.54506,189.40227 -108.64361,101.11507 -85.701957,35.231112 -37.766947,6.244152 Z"
         sodipodi:nodetypes="sssssssss"
         clip-path="url(#clipPath8697)"
         transform="matrix(0.26458333,0,0,0.26458333,3.2e-6,-2.52109)" /><path
         id="path234"
         style="fill:url(#linearGradient675);stroke-width:1.31072;stroke-linecap:round"
         d="m 138.81439,808.02105 c -5.02074,-3.6402 -10.08872,-7.06861 -15.19557,-10.32691 L -207.78139,989.9963 c 4.12754,4.21053 8.5017,8.07806 13.11751,11.5304 z m 17.15108,13.01959 -330.89937,192.01136 c 7.00043,3.0168 14.35085,5.1624 22.01238,6.2215 0.0671,0.01 0.13162,0.024 0.19879,0.033 L 169.59403,832.2751 c -4.5154,-3.83548 -9.05661,-7.58916 -13.62856,-11.23446 z m 29.33279,25.09466 -308.07968,178.7691 c 7.50587,1.7706 14.92587,3.8523 22.31693,6.1898 L 197.92154,857.95195 c -4.17389,-4.0149 -8.38196,-7.95314 -12.62328,-11.81665 z m -81.32815,-60.01121 c -5.88823,-3.16333 -11.80683,-6.12792 -17.76067,-8.83822 l -315.66868,183.17391 c 2.70318,4.86084 5.53191,9.62958 8.72121,14.08415 z m 108.54915,86.32895 -288.5958,167.46296 c 6.23137,2.5272 12.49412,5.2391 18.82321,8.222 L 224.26912,884.77775 c -3.87799,-4.16958 -7.7944,-8.277 -11.74986,-12.32471 z M 62.8692,767.85928 c -7.10436,-2.5413 -14.22119,-4.78945 -21.34434,-6.7581 l -285.05247,165.40697 c 1.51101,5.43014 3.34724,10.76359 5.42728,15.99393 z M 237.89068,899.84763 -36.11227,1058.8407 c 5.496,2.9567 11.08678,6.107 16.75896,9.4199 L 248.85143,912.6315 c -3.61071,-4.31 -7.26247,-8.57194 -10.96075,-12.78387 z M 261.56326,928.2239 0,1080 c 5.10862,3.2145 10.3213,6.5749 15.62895,10.0752 L 271.78704,941.43552 c -3.36004,-4.44301 -6.76538,-8.84645 -10.22378,-13.21162 z M 13.02526,754.66538 c -9.00125,-1.58755 -17.96092,-2.77614 -26.84867,-3.56144 L -249.0758,887.61328 c 0.0316,6.10323 0.50277,12.24434 1.33253,18.37006 z M 283.63412,957.53288 33.82263,1102.4925 c 4.95563,3.4092 9.87477,6.7676 15.03506,10.4181 L 293.13931,971.16046 c -3.11479,-4.57191 -6.27994,-9.1153 -9.50519,-13.62758 z m 20.49574,30.2232 -237.57985,137.85902 c 4.76719,3.4582 9.63671,7.019 14.59503,10.6744 l 231.76633,-134.4873 c -2.86734,-4.70236 -5.78972,-9.38615 -8.78151,-14.04612 z m 18.90011,31.14772 -224.52636,130.2854 c 4.68172,3.5277 9.46574,7.2547 14.20355,10.8999 l 218.35203,-126.7037 c -2.60836,-4.8389 -5.27922,-9.6676 -8.02922,-14.4816 z M -51.46213,749.97068 c -13.40847,0.4 -26.50186,1.62863 -39.14678,3.57264 l -149.04095,86.48492 c -3.30382,7.4377 -5.73771,15.26974 -7.28224,23.36735 z M 340.25014,1051.0249 129.7555,1173.1694 c 4.70338,3.6647 9.41586,7.2439 14.14631,10.9338 l 203.57005,-118.1257 c -2.32662,-4.9864 -4.73188,-9.9722 -7.22172,-14.9526 z m 15.35686,33.2037 -194.7499,113.0069 c 4.72133,3.6487 9.41643,7.3524 14.13822,10.9406 L 361.9113,1099.714 c -2.007,-5.1537 -4.10579,-10.316 -6.3043,-15.4854 z m 13.22356,34.4427 -176.52422,102.4297 c 4.93941,3.6331 9.85025,7.1104 14.76061,10.5807 l 166.97829,-96.8939 c -1.62434,-5.3509 -3.35919,-10.7222 -5.21468,-16.1165 z m 10.72238,35.8928 -154.29795,89.5339 c 5.27974,3.4861 10.52747,6.8416 15.73525,10.0139 l 142.43323,-82.6515 c -1.13477,-5.588 -2.44684,-11.2265 -3.87053,-16.8963 z m 7.40552,37.8206 -126.07159,73.1531 c 6.08848,3.2109 12.10204,6.1174 18.0269,8.6823 l 109.97712,-63.8164 c -0.45114,-5.9345 -1.09295,-11.9403 -1.93243,-18.019 z m -565.8525,-410.58387 c -4.81142,2.54217 -9.35228,5.20707 -13.70103,7.94996 z m 568.5401,451.13677 -86.16391,49.9992 c 9.1972,2.4172 18.0935,3.7027 26.63456,3.686 l 58.40619,-33.8918 c 0.66949,-6.4624 1.03987,-13.0634 1.12316,-19.7934 z"
         clip-path="url(#clipPath3326)"
         transform="matrix(0.26458333,0,0,0.26458333,3.2e-6,1.8207836e-6)" /><path
         id="path2750"
         style="opacity:0.707317;fill:url(#linearGradient2752);stroke-width:1.31072;stroke-linecap:round"
         d="m 1519.6629,181.56512 c 3.723,4.95966 7.5537,9.73082 11.4716,14.35102 l 373.3886,-85.94867 c -2.7012,-5.241 -5.7394,-10.227094 -9.131,-14.887724 z m -12.5456,-17.50084 372.8243,-85.818634 c -5.7985,-4.94815 -12.1884,-9.1672 -19.1963,-12.43997 -0.061,-0.0295 -0.1188,-0.0617 -0.1802,-0.0902 l -363.1543,83.593004 c 3.1822,4.99737 6.4136,9.92384 9.7065,14.75577 z m -20.6215,-32.63284 347.113,-79.899734 c -6.649,-3.90663 -13.1244,-8.08514 -19.4966,-12.49955 l -336.1907,77.383904 c 2.8033,5.06775 5.6618,10.07234 8.5743,15.01538 z m 59.9984,81.33756 c 4.6925,4.75999 9.4728,9.33901 14.3618,13.68555 l 355.664,-81.86901 c -1.1485,-5.44205 -2.4441,-10.8332 -4.1769,-16.03051 z m -78.2414,-114.515874 325.1606,-74.84637 c -5.2082,-4.25343 -10.3919,-8.69264 -15.5589,-13.4103405 L 1460.663,83.009986 c 2.4749,5.12825 5.0049,10.20845 7.5898,15.24314 z m 112.1225,144.095564 c 6.0382,4.52452 12.1747,8.7726 18.3998,12.7555 l 321.1683,-73.92752 c 0.1586,-5.63421 -0.022,-11.27199 -0.4661,-16.88326 z M 1452.0948,64.591656 1760.813,-6.4680645 c -4.3788,-4.4467995 -8.7911,-9.1065595 -13.2331,-13.9457295 l -302.1855,69.55655 c 2.1781,5.18352 4.4097,10.33328 6.7004,15.4489 z m -14.2451,-34.09806 294.7028,-67.83491 c -3.9326,-4.57883 -7.9216,-9.32777 -11.9599,-14.23839 l -288.6129,66.4331 c 1.8993,5.23664 3.8537,10.44889 5.87,15.6402 z m 186.2569,239.169574 c 8.1319,4.17299 16.3419,7.95251 24.6021,11.32544 l 265.0586,-61.01181 c 1.7704,-5.84091 3.1327,-11.84749 4.1475,-17.94529 z M 1425.4102,-4.0230545 1706.8731,-68.812694 c -3.7289,-4.71975 -7.4381,-9.38017 -11.2914,-14.39084 l -275.2322,63.35492 c 1.627,5.28743 3.3105,10.5624595 5.0607,15.8255595 z m -10.6647,-34.9253495 267.6806,-61.614606 c -3.5345,-4.71093 -7.1364,-9.55008 -10.7953,-14.50581 l -261.1311,60.108426 c 1.3521,5.33912 2.7623,10.67672 4.2458,16.01199 z m -8.8674,-35.33791 252.9735,-58.230006 c -3.4322,-4.75215 -6.9034,-9.72487 -10.3547,-14.60577 l -246.0173,56.629776 c 1.0644,5.39313 2.1914,10.79493 3.3985,16.206 z M 1684.337,293.17797 c 12.9295,3.57441 25.8024,6.26411 38.4579,8.13797 l 167.9247,-38.65443 c 5.3514,-6.13158 9.988,-12.89667 13.8532,-20.17797 z m -285.4339,-403.23641 237.1644,-54.59219 c -3.4126,-4.88943 -6.859,-9.69978 -10.29,-14.62129 l -229.3623,52.79571 c 0.7516,5.45089 1.5785,10.92439 2.4879,16.41777 z m -4.8752,-36.25676 219.4244,-50.5075 c -3.4344,-4.8794 -6.8276,-9.80361 -10.2803,-14.62534 l -210.5982,48.4767 c 0.3968,5.51645 0.8789,11.0682 1.4541,16.65614 z m -2.4712,-36.81107 198.8891,-45.77933 c -3.6474,-4.92888 -7.3135,-9.70049 -10.9812,-14.46517 l -188.1348,43.30691 c -0.027,5.59193 0.046,11.23596 0.2269,16.93759 z m 0.3464,-37.45852 173.8472,-40.01641 c -4.0159,-4.88885 -8.0398,-9.64342 -12.0796,-14.21121 l -160.4801,36.94154 c -0.5647,5.67405 -0.9748,11.44863 -1.2875,17.28608 z m 4.0844,-38.32174 142.044,-32.69415 c -4.8698,-4.86454 -9.7579,-9.41612 -14.6622,-13.61513 l -123.9112,28.52239 c -1.32,5.80336 -2.479,11.73113 -3.4706,17.78689 z m 419.4997,559.27468 c 5.3473,-1.00921 10.4723,-2.2155 15.4368,-3.55304 z m -410.1011,-598.8149 97.081,-22.34729 c -8.0743,-5.02352 -16.1952,-8.87692 -24.3609,-11.38131 l -65.8063,15.14795 c -2.5467,5.97709 -4.8484,12.17486 -6.9138,18.58065 z"
         clip-path="url(#clipPath3322)"
         transform="matrix(0.26458333,0,0,0.26458333,3.2e-6,1.8207836e-6)" /><path
         id="path2754"
         style="opacity:0.574133;fill:url(#linearGradient2756);stroke-width:0.127719;stroke-linecap:round"
         d="m 420.28541,221.59008 c -0.51996,0.30787 -1.02283,0.62819 -1.51199,0.95856 l 4.35531,37.08018 c 0.53636,-0.20592 1.05161,-0.44718 1.53911,-0.72615 z m 1.82854,-1.02913 4.34869,37.02417 c 0.54094,-0.50904 1.01751,-1.08311 1.40904,-1.7271 0.003,-0.006 0.007,-0.0109 0.0106,-0.0164 l -4.23593,-36.06396 c -0.51789,0.25509 -1.02941,0.51571 -1.53244,0.78329 z m 3.38005,-1.65045 4.04873,34.47081 c 0.44911,-0.60248 0.92268,-1.18527 1.41798,-1.75553 l -3.92117,-33.38615 c -0.52068,0.21765 -1.0358,0.4413 -1.54554,0.67087 z m -8.51625,4.9467 c -0.51094,0.40392 -1.00529,0.81826 -1.47825,1.24558 l 4.14858,35.32002 c 0.53933,-0.0534 1.0753,-0.12155 1.59711,-0.23414 z m 11.92384,-6.36097 3.79267,32.29077 c 0.46736,-0.45925 0.95245,-0.91413 1.46434,-1.36447 l -3.69985,-31.4994 c -0.52306,0.18518 -1.04201,0.37624 -1.55716,0.5731 z m -15.14914,9.32823 c -0.50242,0.53674 -0.97914,1.08596 -1.4311,1.64658 l 3.7461,31.89434 c 0.54406,0.0752 1.09212,0.11721 1.64028,0.13434 z m 18.58137,-10.53545 3.60072,30.65793 c 0.47725,-0.37685 0.97551,-0.75469 1.49145,-1.13349 l -3.52454,-30.00918 c -0.52525,0.15587 -1.04778,0.31726 -1.56763,0.48474 z m 3.45419,-1.01725 3.43736,29.26609 c 0.48533,-0.33223 0.98772,-0.66812 1.50627,-1.00705 l -3.36632,-28.66133 c -0.52742,0.1283 -1.05304,0.26217 -1.57731,0.40229 z m -25.14616,15.49811 c -0.49064,0.74328 -0.94401,1.49832 -1.35853,2.26254 l 3.09163,26.32224 c 0.54692,0.23358 1.11424,0.42938 1.69408,0.59252 z m 28.6217,-16.33605 3.28313,27.95131 c 0.49681,-0.311 0.98767,-0.62072 1.51395,-0.94068 l -3.21043,-27.33254 c -0.52943,0.10138 -1.05828,0.20836 -1.58665,0.32191 z m 3.49626,-0.66166 3.12213,26.5826 c 0.49387,-0.29227 1.0009,-0.5897 1.5198,-0.89141 l -3.04589,-25.93222 c -0.53152,0.0742 -1.06352,0.15407 -1.59604,0.24103 z m 3.51708,-0.4832 2.95068,25.12209 c 0.49678,-0.28192 1.01534,-0.56528 1.5248,-0.84769 l -2.86962,-24.43128 c -0.53369,0.0458 -1.06889,0.0975 -1.60586,0.15688 z m -38.55302,23.06484 c -0.48369,1.21434 -0.88107,2.43262 -1.19711,3.63851 l 1.95876,16.67613 c 0.53703,0.58352 1.143,1.10455 1.80716,1.55635 z m 42.09208,-23.36013 2.76638,23.55214 c 0.50988,-0.27856 1.01245,-0.56125 1.52561,-0.84125 l -2.67533,-22.77731 c -0.53597,0.0148 -1.0749,0.0367 -1.61666,0.0664 z m 3.56365,-0.0868 2.55934,21.79044 c 0.50914,-0.2808 1.02217,-0.5571 1.52591,-0.84027 l -2.45648,-20.91393 c -0.53853,-0.0202 -1.0814,-0.0325 -1.62877,-0.0362 z m 3.5918,0.152 2.31971,19.75112 c 0.51617,-0.30089 1.01732,-0.60527 1.51783,-0.90985 l -2.19456,-18.68316 c -0.54134,-0.0621 -1.08879,-0.11499 -1.64298,-0.15798 z m 3.62455,0.4318 2.02774,17.26428 c 0.51623,-0.33701 1.01952,-0.67621 1.50492,-1.01894 l -1.87203,-15.93685 c -0.54358,-0.11503 -1.09855,-0.21614 -1.66063,-0.30849 z m 3.66842,0.80302 1.65661,14.10598 c 0.52295,-0.41996 1.01579,-0.84502 1.47466,-1.27542 l -1.44532,-12.30528 c -0.54808,-0.18955 -1.10992,-0.36485 -1.68595,-0.52528 z m -58.63127,34.68682 c 0.0409,0.52868 0.10327,1.0379 0.18003,1.533 z m 62.36121,-33.35608 1.13244,9.64084 c 0.57243,-0.72867 1.03201,-1.47429 1.36139,-2.23859 l -0.76761,-6.53505 c -0.55187,-0.31022 -1.12771,-0.59906 -1.72622,-0.8672 z" /><path
         id="path3312"
         style="opacity:0.574133;fill:url(#linearGradient3314);stroke-width:0.127719;stroke-linecap:round"
         d="m 108.6181,32.516428 c -0.50854,-0.32639 -1.02053,-0.63192 -1.53534,-0.920692 L 75.904923,52.134747 c 0.424802,0.386824 0.87171,0.73891 1.339847,1.049269 z m 1.74051,1.171869 -31.130758,20.507954 c 0.697711,0.254826 1.424635,0.422931 2.175853,0.483664 0.0067,5.29e-4 0.01296,0.0016 0.01942,0.0021 L 111.7465,34.705932 c -0.46044,-0.348245 -0.92297,-0.688306 -1.3879,-1.017659 z m 2.99225,2.279284 -28.983853,19.093585 c 0.739981,0.13081 1.473348,0.292333 2.205273,0.478891 L 114.6442,37.047409 c -0.42824,-0.367535 -0.85935,-0.727408 -1.29334,-1.079828 z m -8.24355,-5.388893 c -0.59031,-0.275211 -1.18248,-0.530918 -1.77666,-0.76169 L 73.632803,49.381062 c 0.289843,0.457949 0.591373,0.906261 0.926251,1.32198 z m 11.03714,7.798819 -27.150833,17.886042 c 0.620183,0.211431 1.244425,0.440661 1.876645,0.695881 L 117.35563,39.511614 c -0.40029,-0.384238 -0.804,-0.762177 -1.21118,-1.134107 z M 101.00789,29.02887 c -0.70517,-0.207965 -1.409956,-0.387368 -2.113811,-0.539527 L 72.076574,46.155791 c 0.177104,0.519891 0.38558,1.028491 0.616374,1.525995 z m 17.75619,11.873537 -25.777977,16.981445 c 0.550994,0.257268 1.112313,0.53286 1.682424,0.823812 L 119.90102,42.085542 c -0.3751,-0.39936 -0.7539,-0.793811 -1.13694,-1.183135 z m 2.45974,2.629805 -24.607634,16.21061 c 0.514755,0.28451 1.040442,0.582621 1.576104,0.893816 L 122.29143,44.761022 C 121.94,44.347343 121.5844,43.937771 121.22382,43.532212 Z M 96.085932,28.020691 c -0.884436,-0.104719 -1.762641,-0.170846 -2.63162,-0.198143 L 71.321953,42.402571 c 0.03683,0.593566 0.116565,1.188408 0.231111,1.779762 z m 27.446998,18.240912 -23.50205,15.482523 c 0.50094,0.304297 0.99806,0.603855 1.52024,0.93047 L 124.5329,47.534839 c -0.32827,-0.427561 -0.6613,-0.852085 -0.99997,-1.273236 z m 2.16089,2.827039 -22.35131,14.724173 c 0.48288,0.310087 0.97628,0.629608 1.47883,0.957818 l 21.8044,-14.364046 c -0.30494,-0.441627 -0.61514,-0.881145 -0.93192,-1.317945 z m 2.01077,2.92577 -21.12324,13.915268 c 0.47494,0.317334 0.96095,0.653479 1.44202,0.981914 l 20.54236,-13.532689 c -0.28049,-0.456337 -0.56698,-0.911349 -0.86114,-1.364493 z M 89.786348,27.92024 c -1.302237,0.112987 -2.569239,0.304861 -3.788656,0.563845 l -14.021641,9.237083 c -0.280305,0.741834 -0.473818,1.517224 -0.579347,2.313522 z m 39.770982,27.123948 -19.80316,13.045749 c 0.47783,0.330544 0.95606,0.652709 1.43664,0.985533 l 19.15167,-12.616529 c -0.25389,-0.472252 -0.51541,-0.943983 -0.78515,-1.414753 z m 1.67744,3.145364 -18.32193,12.069823 c 0.47949,0.328874 0.95671,0.663249 1.43589,0.986237 l 17.5849,-11.58439 c -0.22374,-0.490273 -0.45643,-0.980903 -0.69886,-1.47167 z m 1.47673,3.277706 -16.60727,10.940142 c 0.5006,0.326144 0.99758,0.637294 1.49445,0.947785 l 15.70916,-10.348846 c -0.18756,-0.511585 -0.38607,-1.024514 -0.59646,-1.539021 z m 1.24142,3.432595 -14.51621,9.562772 c 0.5329,0.309975 1.06194,0.607409 1.58612,0.887272 l 13.39999,-8.82768 c -0.14127,-0.537366 -0.30007,-1.078648 -0.4699,-1.622364 z m 0.92941,3.63846 -11.86072,7.813207 c 0.61003,0.278744 1.21112,0.528288 1.80171,0.74508 l 10.34656,-6.815974 c -0.0767,-0.574841 -0.1723,-1.155578 -0.28755,-1.742313 z M 77.565001,31.72086 c -0.454046,0.273907 -0.881065,0.55825 -1.289,0.849109 z m 57.802819,40.747794 -8.10621,5.340196 c 0.9081,0.184356 1.78068,0.260268 2.61151,0.211447 l 5.4948,-3.619838 c 0.0294,-0.632397 0.029,-1.276615 -1e-4,-1.931805 z" /><path
         id="path3316"
         style="opacity:0.574133;fill:url(#linearGradient3318);stroke-width:0.127719;stroke-linecap:round"
         d="m 180.04751,242.37226 c 0.59774,-0.0887 1.18435,-0.19527 1.76206,-0.31638 l 9.97462,-35.97799 c -0.57441,-0.012 -1.14262,0.0168 -1.69938,0.0909 z m -2.08181,0.26213 9.95959,-35.92362 c -0.69316,0.26697 -1.35127,0.61849 -1.95706,1.06686 -0.005,0.004 -0.0108,0.007 -0.016,0.0112 l -9.70128,34.99198 c 0.57589,-0.0405 1.14796,-0.0886 1.71479,-0.14637 z m -3.75307,0.25133 9.27277,-33.44614 c -0.64342,0.38819 -1.30206,0.7489 -1.97608,1.0898 l -8.98113,32.39368 c 0.56431,-0.005 1.12574,-0.0173 1.68444,-0.0373 z m 9.75388,-1.36312 c 0.62567,-0.18098 1.2399,-0.37787 1.83925,-0.59488 l 9.50111,-34.27015 c -0.51953,-0.1543 -1.04154,-0.29365 -1.56722,-0.38651 z m -13.44324,1.38537 8.68634,-31.33091 c -0.60621,0.24867 -1.22719,0.48661 -1.87127,0.71021 l -8.47333,30.56311 c 0.55425,0.0261 1.10692,0.0453 1.65826,0.0576 z m 17.55046,-2.9144 c 0.66795,-0.30718 1.31683,-0.63562 1.94708,-0.98397 l 8.5797,-30.94626 c -0.47536,-0.27511 -0.96693,-0.52108 -1.468,-0.74401 z m -21.18441,2.73563 8.24726,-29.74653 c -0.58425,0.16863 -1.18833,0.33025 -1.80913,0.48609 l -8.07272,29.11708 c 0.54522,0.0541 1.08999,0.10206 1.63459,0.14336 z m -3.58252,-0.36295 7.87273,-28.39613 c -0.57487,0.12428 -1.16691,0.24551 -1.77508,0.36344 l -7.71006,27.80932 c 0.5368,0.0805 1.07405,0.15505 1.61241,0.22337 z m 29.13745,-4.85072 c 0.73507,-0.50286 1.44006,-1.03069 2.11256,-1.5817 l 7.08079,-25.53979 c -0.41816,-0.42287 -0.86947,-0.81848 -1.34472,-1.18856 z m -32.67201,4.31366 7.51887,-27.12049 c -0.57748,0.10028 -1.14897,0.20163 -1.75712,0.29908 l -7.35245,26.52011 c 0.5285,0.10612 1.05858,0.20684 1.5907,0.3013 z m -3.48715,-0.70809 7.1509,-25.79238 c -0.56768,0.084 -1.14949,0.16791 -1.74392,0.25125 l -6.97582,25.16139 c 0.52017,0.13207 1.04292,0.2591 1.56884,0.37974 z m -3.43902,-0.8812 6.75793,-24.37531 c -0.56646,0.0734 -1.15364,0.13984 -1.73203,0.20888 l -6.57204,23.70507 c 0.51144,0.15923 1.02652,0.31352 1.54614,0.46136 z m 44.40931,-6.79227 c 0.90658,-0.94166 1.73472,-1.91956 2.48288,-2.91671 l 4.48586,-16.18045 c -0.27681,-0.74315 -0.64106,-1.45448 -1.08534,-2.12369 z m -47.7977,5.72879 6.33554,-22.85208 c -0.57733,0.0653 -1.14946,0.1372 -1.73037,0.20262 l -6.12713,22.10026 c 0.50186,0.18872 1.00914,0.37202 1.52196,0.5492 z m -3.33237,-1.26586 5.86173,-21.14269 c -0.57748,0.0677 -1.15687,0.12969 -1.73026,0.20159 l -5.62587,20.29227 c 0.491,0.22213 0.98898,0.43863 1.4944,0.64883 z m -3.26825,-1.49755 5.31325,-19.16396 c -0.59159,0.0836 -1.17059,0.17612 -1.74907,0.26907 l -5.0257,18.12785 c 0.47778,0.26197 0.96468,0.51776 1.46157,0.76692 z m -3.19288,-1.769 4.64417,-16.75108 c -0.60528,0.11703 -1.19942,0.24097 -1.77833,0.37495 l -4.28689,15.46318 c 0.45986,0.31185 0.9355,0.61511 1.42105,0.91295 z m -3.09327,-2.12929 3.79474,-13.68659 c -0.64284,0.19129 -1.25973,0.39869 -1.84718,0.62386 l -3.31016,11.9395 c 0.43587,0.38254 0.88987,0.75709 1.3626,1.12323 z m 67.39014,-9.96847 c 0.16184,-0.50497 0.29646,-1.00002 0.41242,-1.48742 z m -70.34101,7.32733 2.59334,-9.35429 c -0.80527,0.45844 -1.51246,0.9752 -2.10616,1.55845 l -1.75791,6.34081 c 0.39379,0.4957 0.81785,0.98066 1.27073,1.45503 z" /><path
         id="path4142"
         style="opacity:0.746951;fill:url(#linearGradient4144);fill-opacity:1;stroke-linecap:round"
         d="m 2149.8157,1068.6736 c -42.2761,36.7524 -156.8842,-21.3051 -202.8736,-97.00176 -59.6914,-98.24961 -94.435,-122.75042 -178.2905,-169.25649 -97.9767,-54.33782 -353.3962,-34.10696 -375.4781,-119.88231 -22.082,-85.77539 160.066,-214.71646 202.3421,-251.46888 42.2762,-36.75235 112.0204,-38.41117 193.8899,-4.61152 81.8695,33.79953 169.1578,100.28893 242.6626,184.84125 73.5048,84.55229 127.2048,180.2413 149.2867,266.01664 22.082,85.77531 10.737,154.61067 -31.5391,191.36307 z"
         sodipodi:nodetypes="sssssssss"
         clip-path="url(#clipPath4148)"
         transform="matrix(0.26458333,0,0,0.26458333,3.2e-6,1.8207836e-6)" /><text
         xml:space="preserve"
         style="font-weight:bold;font-size:47.9655px;font-family:Outfit;-inkscape-font-specification:'Outfit, Bold';fill:#ffffff;fill-opacity:1;stroke-width:0.111567;stroke-linecap:round"
         x="27.950287"
         y="148.24411"
         id="text4210"><tspan
           sodipodi:role="line"
           id="tspan4208"
           x="27.950287"
           y="148.24411"
           style="fill:#ffffff;stroke-width:0.111567">Assalamu</tspan></text><text
         xml:space="preserve"
         style="font-weight:bold;font-size:63.2407px;font-family:Outfit;-inkscape-font-specification:'Outfit, Bold';fill:#ffffff;fill-opacity:1;stroke-width:0.147096;stroke-linecap:round"
         x="27.721161"
         y="213.66963"
         id="text4264"><tspan
           sodipodi:role="line"
           id="tspan4262"
           x="27.721161"
           y="213.66963"
           style="fill:#ffffff;stroke-width:0.147096">Alaikum</tspan></text></g></g></svg>
